# xmcd
#
# Track frame offsets:
#	150
#	17573
#	33627
#	52200
#	67521
#	79201
#	95995
#	115114
#	129039
#	143728
#	161902
#	178728
#
# Disc length: 2602 seconds
#
# Revision: 0
# Processed by: cddbd v1.5.2PL0 Copyright (c) Steve Scherf et al.
# Submitted via: EasyCDDAExtractor 8.2.3.1
#
DISCID=a00a280c
DTITLE=SEASICK STEVE - You Can't Teach An Old Dog New Tricks
DYEAR=2011
DGENRE=Blues/American Folk
TTITLE0=Treasures
TTITLE1=You Can't Teach An Old Dog New Tricks
TTITLE2=Burnin' Up
TTITLE3=Don't Know Why She Love Me But She Do
TTITLE4=Have Mercy On The Lonely
TTITLE5=Whiskey Ballad
TTITLE6=Back In The Doghouse
TTITLE7=Underneath A Blue And Cloudless Sky
TTITLE8=What A Way To Go
TTITLE9=Party
TTITLE10=Days Gone
TTITLE11=It's A Long Long Way
EXTD=
EXTT0=
EXTT1=
EXTT2=
EXTT3=
EXTT4=
EXTT5=
EXTT6=
EXTT7=
EXTT8=
EXTT9=
EXTT10=
EXTT11=
PLAYORDER=
